<svg width="390" height="421" viewBox="0 0 390 421" fill="none" xmlns="http://www.w3.org/2000/svg">
<circle opacity="0.2" cx="195.5" cy="210.5" r="210.5" fill="#037601"/>
<circle opacity="0.2" cx="195.5" cy="210.5" r="186.5" fill="#0C9600"/>
<circle opacity="0.2" cx="195.5" cy="210.5" r="167.5" fill="#037601"/>
<circle opacity="0.2" cx="195.5" cy="210.5" r="143.5" fill="#0C9600"/>
<path d="M214.581 311.632L389.5 199.5" stroke="url(#paint0_linear_46_8385)" stroke-width="5" stroke-linecap="round"/>
<path d="M200.545 303.083L389.5 184" stroke="url(#paint1_linear_46_8385)" stroke-width="5" stroke-linecap="round"/>
<path d="M186.509 294.325L391 168" stroke="url(#paint2_linear_46_8385)" stroke-width="5" stroke-linecap="round"/>
<path d="M173.512 285.951L389.5 152" stroke="url(#paint3_linear_46_8385)" stroke-width="5" stroke-linecap="round"/>
<path d="M214.711 310.285L109.895 373.93L22.7534 402.961L1.39673 416.5" stroke="url(#paint4_linear_46_8385)" stroke-width="5" stroke-linecap="round"/>
<path d="M173.642 284.603L68.8258 348.249L17.8146 399.332L0 410.5" stroke="url(#paint5_linear_46_8385)" stroke-width="5" stroke-linecap="round"/>
<path d="M139.296 348.278C140.139 347.816 141.179 347.887 141.966 348.46L150.58 354.738C152.03 355.795 151.958 357.976 150.444 358.899L140.521 364.944C139.673 365.46 138.593 365.418 137.775 364.835L128.56 358.272C127.048 357.195 127.162 354.919 128.772 354.038L139.296 348.278Z" stroke="#2EE962"/>
<path d="M139.296 348.278C140.139 347.816 141.179 347.887 141.966 348.46L150.58 354.738C152.03 355.795 151.958 357.976 150.444 358.899L140.521 364.944C139.673 365.46 138.593 365.418 137.775 364.835L128.56 358.272C127.048 357.195 127.162 354.919 128.772 354.038L139.296 348.278Z" stroke="#2EE962"/>
<path d="M317.69 202.82C318.534 202.359 319.574 202.43 320.36 203.003L328.974 209.281C330.424 210.337 330.353 212.519 328.838 213.442L318.916 219.487C318.068 220.003 316.988 219.96 316.17 219.378L306.954 212.815C305.442 211.738 305.556 209.461 307.166 208.581L317.69 202.82Z" stroke="#2EE962"/>
<path d="M171.937 329.124C172.955 328.578 174.203 328.675 175.141 329.373L181.339 333.982C183.067 335.266 182.959 337.882 181.135 338.972L173.829 343.337C172.806 343.948 171.51 343.884 170.533 343.175L163.898 338.352C162.096 337.043 162.256 334.314 164.194 333.275L171.937 329.124Z" fill="#6DEC89"/>
<path d="M344.613 189.235C345.631 188.689 346.879 188.786 347.817 189.484L354.015 194.093C355.742 195.377 355.635 197.993 353.81 199.083L346.505 203.448C345.482 204.059 344.186 203.995 343.209 203.286L336.574 198.463C334.772 197.154 334.931 194.425 336.87 193.386L344.613 189.235Z" fill="#6DEC89"/>
<path d="M371.613 155.235C372.631 154.689 373.879 154.786 374.817 155.484L381.015 160.093C382.742 161.377 382.635 163.993 380.81 165.083L373.505 169.448C372.482 170.059 371.186 169.995 370.209 169.286L363.574 164.463C361.772 163.154 361.931 160.425 363.87 159.386L371.613 155.235Z" fill="#6DEC89"/>
<path d="M116.464 311.961C117.482 311.415 118.73 311.513 119.668 312.21L125.866 316.819C127.593 318.104 127.486 320.719 125.661 321.809L118.356 326.174C117.333 326.785 116.037 326.721 115.06 326.012L108.425 321.19C106.623 319.88 106.783 317.151 108.721 316.112L116.464 311.961Z" fill="#6DEC89"/>
<path d="M99.5744 355.279L189.529 300.549" stroke="url(#paint6_linear_46_8385)" stroke-width="10" stroke-linecap="round" stroke-dasharray="1 20"/>
<path d="M145.742 81.9761C151.26 79.4708 157.653 79.8654 163.023 83.0429L281.173 152.952C287.423 156.65 291.383 163.572 291.515 171.031L294.092 316.72C294.191 322.293 291.424 327.394 286.859 330.054L272.364 338.5L274.496 193.036C274.685 180.171 267.929 168.079 257.065 161.838L130.272 89L145.742 81.9761Z" fill="url(#paint7_linear_46_8385)"/>
<path d="M121.924 105.648C121.924 90.1467 138.673 80.8269 151.969 88.9292L270.348 161.064C276.447 164.781 280.194 171.431 280.194 178.541L280.194 321.916C280.194 337.417 263.445 346.737 250.148 338.634L131.77 266.5C125.67 262.783 121.924 256.133 121.924 249.022L121.924 105.648Z" fill="url(#paint8_linear_46_8385)"/>
<path d="M113.145 117.907C113.145 102.446 129.817 93.1193 143.114 101.142L257.781 170.33C263.923 174.037 267.702 180.712 267.702 187.854L267.702 328.514C267.702 344.089 250.809 353.396 237.514 345.144L122.848 273.975C116.829 270.239 113.145 263.636 113.145 256.585L113.145 117.907Z" fill="url(#paint9_linear_46_8385)" fill-opacity="0.5"/>
<path d="M147 203.092L190.928 229.751L235.895 202.674V260.668C235.895 264.175 234.058 267.425 231.054 269.234L196.147 290.253C192.941 292.184 188.927 292.163 185.741 290.199L151.752 269.249C148.798 267.428 147 264.206 147 260.736V203.092Z" fill="url(#paint10_linear_46_8385)"/>
<path d="M235.895 260.658V203.79H227.058V271.623L231.041 269.232C234.053 267.425 235.895 264.17 235.895 260.658Z" fill="url(#paint11_linear_46_8385)"/>
<path d="M151.856 208.014C148.539 205.959 148.673 200.77 152.09 198.914L186.604 180.168C189.304 178.702 192.488 178.682 195.203 180.115L230.785 198.89C234.269 200.728 234.402 206.009 231.017 208.048L195.673 229.33C192.708 231.115 189.087 231.091 186.143 229.266L151.856 208.014Z" fill="#3CCD39"/>
<path d="M227.058 210.49L180.011 183.692L188.848 178.946C190.928 177.83 193.007 178.946 193.527 179.225L234.856 200.999C236.307 201.79 236.359 204.747 235.116 205.744L227.058 210.49Z" fill="url(#paint12_linear_46_8385)"/>
<path opacity="0.5" d="M246.033 231.565L200.671 260.458C194.533 264.368 186.929 264.375 180.875 260.478L127.961 226.413C126.043 225.179 126.141 222.159 128.135 221.017L147.259 210.071" stroke="#02680C" stroke-width="2"/>
<defs>
<linearGradient id="paint0_linear_46_8385" x1="366.464" y1="181.138" x2="217.496" y2="158.276" gradientUnits="userSpaceOnUse">
<stop stop-color="#0C9600"/>
</linearGradient>
<linearGradient id="paint1_linear_46_8385" x1="352.428" y1="172.589" x2="203.46" y2="149.727" gradientUnits="userSpaceOnUse">
<stop stop-color="#0C9600"/>
</linearGradient>
<linearGradient id="paint2_linear_46_8385" x1="338.392" y1="163.831" x2="189.424" y2="140.969" gradientUnits="userSpaceOnUse">
<stop stop-color="#0C9600"/>
</linearGradient>
<linearGradient id="paint3_linear_46_8385" x1="325.395" y1="155.457" x2="176.428" y2="132.595" gradientUnits="userSpaceOnUse">
<stop stop-color="#0C9600"/>
</linearGradient>
<linearGradient id="paint4_linear_46_8385" x1="-52.672" y1="434.372" x2="-201.64" y2="411.51" gradientUnits="userSpaceOnUse">
<stop stop-color="#0C9600"/>
</linearGradient>
<linearGradient id="paint5_linear_46_8385" x1="-93.7409" y1="408.69" x2="-242.709" y2="385.828" gradientUnits="userSpaceOnUse">
<stop stop-color="#0C9600"/>
</linearGradient>
<linearGradient id="paint6_linear_46_8385" x1="179.086" y1="323.635" x2="109.749" y2="298.366" gradientUnits="userSpaceOnUse">
<stop stop-color="#5BFF7F"/>
<stop offset="1" stop-color="#5BFF76"/>
</linearGradient>
<linearGradient id="paint7_linear_46_8385" x1="136.005" y1="176.352" x2="298.026" y2="176.777" gradientUnits="userSpaceOnUse">
<stop offset="0.416667" stop-color="#5BE41B"/>
<stop offset="1" stop-color="#037601"/>
</linearGradient>
<linearGradient id="paint8_linear_46_8385" x1="133.902" y1="255.382" x2="283.871" y2="128.893" gradientUnits="userSpaceOnUse">
<stop stop-color="#0AB307"/>
<stop offset="1" stop-color="#18790F"/>
</linearGradient>
<linearGradient id="paint9_linear_46_8385" x1="124.841" y1="262.931" x2="263.224" y2="192.126" gradientUnits="userSpaceOnUse">
<stop stop-color="#1FD65D"/>
<stop offset="1" stop-color="#21D004"/>
</linearGradient>
<linearGradient id="paint10_linear_46_8385" x1="152.569" y1="224.59" x2="245.803" y2="243.816" gradientUnits="userSpaceOnUse">
<stop stop-color="#0FCC22"/>
<stop offset="1" stop-color="#127D00"/>
</linearGradient>
<linearGradient id="paint11_linear_46_8385" x1="216.629" y1="252.091" x2="254.068" y2="252.6" gradientUnits="userSpaceOnUse">
<stop stop-color="#42A83C" stop-opacity="0"/>
<stop offset="0.673011" stop-color="#034506"/>
</linearGradient>
<linearGradient id="paint12_linear_46_8385" x1="216.794" y1="178.121" x2="194.867" y2="213.08" gradientUnits="userSpaceOnUse">
<stop stop-color="#057809"/>
<stop offset="1" stop-color="#10B416" stop-opacity="0.65"/>
</linearGradient>
</defs>
</svg>
