<svg width="18" height="23" viewBox="0 0 18 23" fill="none" xmlns="http://www.w3.org/2000/svg">
<g filter="url(#filter0_d_46_12)">
<path d="M7.12988 3.43387C7.12988 2.54119 7.85354 1.81754 8.74621 1.81754C9.63889 1.81754 10.3625 2.54119 10.3625 3.43387V5.0502H7.12988V3.43387Z" fill="#02A112"/>
</g>
<g filter="url(#filter1_d_46_12)">
<path d="M10.3623 7.4747C10.3623 8.36738 9.63865 9.09103 8.74597 9.09103C7.8533 9.09103 7.12964 8.36738 7.12964 7.4747L7.12964 5.85837L10.3623 5.85837L10.3623 7.4747Z" fill="#02A112"/>
</g>
<g filter="url(#filter2_d_46_12)">
<path d="M5.76285 6.80148C5.73305 7.99356 6.2814 10.3777 8.71324 10.3777M8.71324 10.3777C11.1451 10.3777 11.7381 7.99356 11.7307 6.80148M8.71324 10.3777V13.1046H6.25459H11.1496" stroke="#02A112"/>
</g>
<defs>
<filter id="filter0_d_46_12" x="2.12988" y="0.817535" width="13.2324" height="13.2327" filterUnits="userSpaceOnUse" color-interpolation-filters="sRGB">
<feFlood flood-opacity="0" result="BackgroundImageFix"/>
<feColorMatrix in="SourceAlpha" type="matrix" values="0 0 0 0 0 0 0 0 0 0 0 0 0 0 0 0 0 0 127 0" result="hardAlpha"/>
<feOffset dy="4"/>
<feGaussianBlur stdDeviation="2.5"/>
<feComposite in2="hardAlpha" operator="out"/>
<feColorMatrix type="matrix" values="0 0 0 0 0 0 0 0 0 0 0 0 0 0 0 0 0 0 0.4 0"/>
<feBlend mode="normal" in2="BackgroundImageFix" result="effect1_dropShadow_46_12"/>
<feBlend mode="normal" in="SourceGraphic" in2="effect1_dropShadow_46_12" result="shape"/>
</filter>
<filter id="filter1_d_46_12" x="2.12988" y="4.85837" width="13.2324" height="13.2327" filterUnits="userSpaceOnUse" color-interpolation-filters="sRGB">
<feFlood flood-opacity="0" result="BackgroundImageFix"/>
<feColorMatrix in="SourceAlpha" type="matrix" values="0 0 0 0 0 0 0 0 0 0 0 0 0 0 0 0 0 0 127 0" result="hardAlpha"/>
<feOffset dy="4"/>
<feGaussianBlur stdDeviation="2.5"/>
<feComposite in2="hardAlpha" operator="out"/>
<feColorMatrix type="matrix" values="0 0 0 0 0 0 0 0 0 0 0 0 0 0 0 0 0 0 0.4 0"/>
<feBlend mode="normal" in2="BackgroundImageFix" result="effect1_dropShadow_46_12"/>
<feBlend mode="normal" in="SourceGraphic" in2="effect1_dropShadow_46_12" result="shape"/>
</filter>
<filter id="filter2_d_46_12" x="0.261719" y="5.789" width="16.9692" height="16.8156" filterUnits="userSpaceOnUse" color-interpolation-filters="sRGB">
<feFlood flood-opacity="0" result="BackgroundImageFix"/>
<feColorMatrix in="SourceAlpha" type="matrix" values="0 0 0 0 0 0 0 0 0 0 0 0 0 0 0 0 0 0 127 0" result="hardAlpha"/>
<feOffset dy="4"/>
<feGaussianBlur stdDeviation="2.5"/>
<feComposite in2="hardAlpha" operator="out"/>
<feColorMatrix type="matrix" values="0 0 0 0 0 0 0 0 0 0 0 0 0 0 0 0 0 0 0.4 0"/>
<feBlend mode="normal" in2="BackgroundImageFix" result="effect1_dropShadow_46_12"/>
<feBlend mode="normal" in="SourceGraphic" in2="effect1_dropShadow_46_12" result="shape"/>
</filter>
</defs>
</svg>
