<svg width="12" height="12" viewBox="-3 0 18 18" fill="none" xmlns="http://www.w3.org/2000/svg">
<path d="M5.57143 0H6.42857V2.14286H5.57143V0ZM8.43771 2.95714L9.94029 1.45457L10.5463 2.06057L9.04371 3.56314L8.43771 2.95714ZM9.85714 5.57143H12V6.42857H9.85714V5.57143ZM8.43771 9.04286L9.04371 8.43729L10.5463 9.93986L9.94029 10.5459L8.43771 9.04286ZM5.57143 9.85714H6.42857V12H5.57143V9.85714ZM1.45457 9.93943L2.95714 8.43686L3.56314 9.04286L2.061 10.5454L1.45457 9.93943ZM0 5.57143H2.14286V6.42857H0V5.57143ZM1.455 2.06057L2.061 1.45457L3.56357 2.95714L2.95714 3.56314L1.455 2.06057ZM6 3.42857C5.49142 3.42857 4.99426 3.57938 4.57139 3.86194C4.14852 4.14449 3.81894 4.54609 3.62431 5.01596C3.42968 5.48582 3.37876 6.00285 3.47798 6.50166C3.5772 7.00047 3.8221 7.45865 4.18173 7.81827C4.54135 8.1779 4.99953 8.4228 5.49834 8.52202C5.99715 8.62124 6.51418 8.57032 6.98404 8.37569C7.45391 8.18107 7.85551 7.85148 8.13806 7.42861C8.42062 7.00574 8.57143 6.50858 8.57143 6C8.57143 5.31801 8.30051 4.66396 7.81827 4.18173C7.33604 3.69949 6.68199 3.42857 6 3.42857Z" fill="white"/>
</svg>
