<svg width="601" height="551" viewBox="0 0 601 551" fill="none" xmlns="http://www.w3.org/2000/svg">
<path d="M171.588 23.9329C181.476 18.9342 193.212 19.2306 202.834 24.722L445.728 163.338C456.019 169.211 462.371 180.15 462.371 191.999L462.371 483.334C462.371 490.254 458.794 496.683 452.914 500.33L420.592 520.379L427.98 219.003C428.285 206.557 421.56 194.999 410.589 189.114L136.092 41.8788L171.588 23.9329Z" fill="url(#paint0_linear_143_13)"/>
<path d="M124.855 59.9424C124.855 44.6129 141.392 34.9823 154.725 42.5475L419.172 192.596C425.433 196.149 429.302 202.793 429.302 209.991L429.302 504.108C429.302 519.437 412.765 529.068 399.432 521.503L134.985 371.454C128.724 367.901 124.855 361.258 124.855 354.059L124.855 59.9424Z" fill="url(#paint1_linear_143_13)"/>
<path d="M107.967 82.0564C107.967 66.7642 124.432 57.1295 137.764 64.62L395.071 209.187C401.373 212.728 405.274 219.394 405.274 226.623L405.274 516.22C405.274 531.62 388.6 541.242 375.266 533.536L117.96 384.83C111.776 381.256 107.967 374.656 107.967 367.513L107.967 82.0564Z" fill="url(#paint2_linear_143_13)" fill-opacity="0.5"/>
<path d="M173.092 262.878L257.592 310.629L344.092 262.129V370.271C344.092 373.889 342.138 377.224 338.983 378.994L262.54 421.854C259.471 423.575 255.723 423.556 252.672 421.805L178.114 379.011C175.008 377.228 173.092 373.92 173.092 370.338V262.878Z" fill="url(#paint3_linear_143_13)"/>
<path d="M344.092 370.262V264.129H327.092V385.629L338.97 378.991C342.133 377.224 344.092 373.884 344.092 370.262Z" fill="url(#paint4_linear_143_13)"/>
<path d="M175.598 267.749C172.156 265.763 172.295 260.75 175.84 258.957L253.073 219.896C255.874 218.48 259.179 218.46 261.996 219.845L341.553 258.933C345.167 260.709 345.306 265.812 341.793 267.782L262.484 312.25C259.407 313.975 255.649 313.952 252.595 312.189L175.598 267.749Z" fill="#3CCD39"/>
<path d="M327.092 276.129L236.592 228.129L253.592 219.629C257.592 217.629 261.592 219.629 262.592 220.129L342.092 259.129C344.882 260.546 344.983 265.842 342.592 267.629L327.092 276.129Z" fill="url(#paint5_linear_143_13)"/>
<path opacity="0.5" d="M363.592 313.879L267.421 370.918C261.102 374.665 253.237 374.647 246.935 370.87L132.64 302.355C130.639 301.156 130.713 298.232 132.772 297.135L173.592 275.379" stroke="#02680C" stroke-width="2"/>
<defs>
<linearGradient id="paint0_linear_143_13" x1="147.092" y1="212.392" x2="475.092" y2="219.392" gradientUnits="userSpaceOnUse">
<stop offset="0.416667" stop-color="#5BE41B"/>
<stop offset="1" stop-color="#037601"/>
</linearGradient>
<linearGradient id="paint1_linear_143_13" x1="147.896" y1="356.538" x2="419.092" y2="110.892" gradientUnits="userSpaceOnUse">
<stop stop-color="#0AB307"/>
<stop offset="1" stop-color="#18790F"/>
</linearGradient>
<linearGradient id="paint2_linear_143_13" x1="130.466" y1="370.06" x2="388.452" y2="228.301" gradientUnits="userSpaceOnUse">
<stop stop-color="#1FD65D"/>
<stop offset="1" stop-color="#21D004"/>
</linearGradient>
<linearGradient id="paint3_linear_143_13" x1="183.805" y1="301.385" x2="362.035" y2="340.855" gradientUnits="userSpaceOnUse">
<stop stop-color="#0FCC22"/>
<stop offset="1" stop-color="#127D00"/>
</linearGradient>
<linearGradient id="paint4_linear_143_13" x1="307.03" y1="350.643" x2="379.046" y2="351.696" gradientUnits="userSpaceOnUse">
<stop stop-color="#42A83C" stop-opacity="0"/>
<stop offset="0.673011" stop-color="#034506"/>
</linearGradient>
<linearGradient id="paint5_linear_143_13" x1="307.348" y1="218.151" x2="269.351" y2="283.211" gradientUnits="userSpaceOnUse">
<stop stop-color="#057809"/>
<stop offset="1" stop-color="#10B416" stop-opacity="0.65"/>
</linearGradient>
</defs>
</svg>
