<svg width="17" height="23" viewBox="0 0 17 23" fill="none" xmlns="http://www.w3.org/2000/svg">
<g filter="url(#filter0_d_45_1082)">
<path d="M8.91376 5.37487V9.58517M8.91376 9.58517C8.54371 9.59131 7.80361 9.82192 7.80361 10.6953C7.80361 11.5687 8.54371 11.7993 8.91376 11.8055C9.28381 11.8055 10.0239 11.5834 10.0239 10.6953C10.0239 9.8072 9.28381 9.58517 8.91376 9.58517ZM6.30371 10.6028C6.31509 11.4728 6.85303 13.2129 8.91376 13.2129C10.9745 13.2129 11.5125 11.4728 11.5239 10.6028C11.5239 10.0144 11.2851 9.02822 10.4849 8.45128V3.52771C10.4849 3.00401 10.1706 1.9566 8.91376 1.9566C7.6569 1.9566 7.34269 3.00401 7.34268 3.52771V8.45128C6.54243 9.02822 6.30373 10.0144 6.30371 10.6028Z" stroke="#02A212" stroke-width="0.8" shape-rendering="crispEdges"/>
</g>
<defs>
<filter id="filter0_d_45_1082" x="0.903809" y="0.55661" width="16.02" height="22.0563" filterUnits="userSpaceOnUse" color-interpolation-filters="sRGB">
<feFlood flood-opacity="0" result="BackgroundImageFix"/>
<feColorMatrix in="SourceAlpha" type="matrix" values="0 0 0 0 0 0 0 0 0 0 0 0 0 0 0 0 0 0 127 0" result="hardAlpha"/>
<feOffset dy="4"/>
<feGaussianBlur stdDeviation="2.5"/>
<feComposite in2="hardAlpha" operator="out"/>
<feColorMatrix type="matrix" values="0 0 0 0 0 0 0 0 0 0 0 0 0 0 0 0 0 0 0.4 0"/>
<feBlend mode="normal" in2="BackgroundImageFix" result="effect1_dropShadow_45_1082"/>
<feBlend mode="normal" in="SourceGraphic" in2="effect1_dropShadow_45_1082" result="shape"/>
</filter>
</defs>
</svg>
