<svg width="17" height="23" viewBox="0 0 17 23" fill="none" xmlns="http://www.w3.org/2000/svg">
<g filter="url(#filter0_d_141_7)">
<path d="M8.61005 5.41827V9.62857M8.61005 9.62857C8.24 9.6347 7.4999 9.86532 7.4999 10.7387C7.4999 11.6121 8.24 11.8427 8.61005 11.8489C8.9801 11.8489 9.72019 11.6268 9.72019 10.7387C9.72019 9.8506 8.9801 9.62857 8.61005 9.62857ZM6 10.6462C6.01138 11.5162 6.54932 13.2563 8.61005 13.2563C10.6708 13.2563 11.2088 11.5162 11.2202 10.6462C11.2202 10.0578 10.9814 9.07162 10.1811 8.49468V3.5711C10.1811 3.0474 9.86691 2 8.61005 2C7.35319 2 7.03898 3.0474 7.03897 3.5711V8.49468C6.23872 9.07162 6.00002 10.0578 6 10.6462Z" stroke="white" stroke-width="0.8" shape-rendering="crispEdges"/>
</g>
<defs>
<filter id="filter0_d_141_7" x="0.600098" y="0.600006" width="16.02" height="22.0563" filterUnits="userSpaceOnUse" color-interpolation-filters="sRGB">
<feFlood flood-opacity="0" result="BackgroundImageFix"/>
<feColorMatrix in="SourceAlpha" type="matrix" values="0 0 0 0 0 0 0 0 0 0 0 0 0 0 0 0 0 0 127 0" result="hardAlpha"/>
<feOffset dy="4"/>
<feGaussianBlur stdDeviation="2.5"/>
<feComposite in2="hardAlpha" operator="out"/>
<feColorMatrix type="matrix" values="0 0 0 0 0 0 0 0 0 0 0 0 0 0 0 0 0 0 0.4 0"/>
<feBlend mode="normal" in2="BackgroundImageFix" result="effect1_dropShadow_141_7"/>
<feBlend mode="normal" in="SourceGraphic" in2="effect1_dropShadow_141_7" result="shape"/>
</filter>
</defs>
</svg>
